<svg xmlns="http://www.w3.org/2000/svg" width="980" height="860" viewBox="0 0 980 860" version="1.1"><path d="M 268.250 0.750 C 289.563 0.900, 324.438 0.900, 345.750 0.750 C 367.063 0.599, 349.625 0.476, 307 0.476 C 264.375 0.476, 246.938 0.599, 268.250 0.750 M 506.250 0.750 C 527.563 0.900, 562.438 0.900, 583.750 0.750 C 605.063 0.599, 587.625 0.476, 545 0.476 C 502.375 0.476, 484.938 0.599, 506.250 0.750 M 163.750 1.740 C 167.188 1.936, 172.813 1.936, 176.250 1.740 C 179.688 1.545, 176.875 1.385, 170 1.385 C 163.125 1.385, 160.313 1.545, 163.750 1.740 M 676.292 1.742 C 680.027 1.935, 685.877 1.934, 689.292 1.739 C 692.706 1.545, 689.650 1.387, 682.500 1.389 C 675.350 1.390, 672.556 1.550, 676.292 1.742 M 724 11.311 C 724 11.544, 725.913 12.991, 728.250 14.526 C 734.298 18.499, 747.333 31.385, 751.659 37.667 C 755.791 43.666, 757.021 44.634, 754.307 39.750 C 750.737 33.328, 724 8.239, 724 11.311 M 113.932 23.750 C 108.206 29.930, 105.623 33, 106.148 33 C 106.421 33, 109.229 30.075, 112.387 26.500 C 118.564 19.508, 119.645 17.584, 113.932 23.750 M 763.320 80 C 763.320 83.575, 763.502 85.037, 763.723 83.250 C 763.945 81.463, 763.945 78.537, 763.723 76.750 C 763.502 74.963, 763.320 76.425, 763.320 80 M 764.251 111 L 764.087 120.500 726.793 157.385 C 691.611 192.184, 691.254 192.570, 720.500 164.212 C 737.550 147.679, 754.555 131.051, 758.290 127.261 L 765.080 120.369 764.748 110.935 L 764.415 101.500 764.251 111 M 685.926 284.750 C 519.260 451.682, 495.921 475.665, 487.164 489 L 484.865 492.500 487.683 489.033 C 506.955 465.320, 543.389 427.990, 701.702 269.750 C 778.600 192.887, 841.272 130, 840.974 130 C 840.675 130, 770.904 199.637, 685.926 284.750 M 916.594 187 C 947.954 218.625, 975.050 246.715, 976.806 249.421 C 978.563 252.128, 980 253.856, 980 253.261 C 980 250.452, 967.602 237.397, 915.642 185.500 L 859.576 129.500 916.594 187 M 144.500 148.373 C 143.050 151.365, 141.125 153.250, 137.500 155.227 C 131.769 158.352, 132.127 158.996, 137.945 156.028 C 141.979 153.970, 145.471 150.243, 146.550 146.842 C 147.675 143.298, 146.554 144.135, 144.500 148.373 M 77.561 175.902 C 77.254 176.398, 78.577 179.143, 80.502 182.002 C 82.426 184.862, 84 186.773, 84 186.251 C 84 185.728, 82.605 183.374, 80.900 181.021 C 78.455 177.645, 78.085 176.561, 79.150 175.886 C 80.059 175.310, 80.111 175.026, 79.309 175.015 C 78.654 175.007, 77.867 175.406, 77.561 175.902 M 6.152 184.208 C 8.160 186.018, 11.310 188.307, 13.152 189.294 C 16.372 191.018, 16.405 191.018, 14.025 189.294 C 12.664 188.307, 9.514 186.018, 7.025 184.208 L 2.500 180.915 6.152 184.208 M 17.500 191.740 C 18.050 192.312, 21.200 194.253, 24.500 196.052 C 27.800 197.852, 30.050 198.869, 29.500 198.312 C 28.950 197.756, 25.800 195.815, 22.500 194 C 19.200 192.185, 16.950 191.168, 17.500 191.740 M 33 200.496 C 33 201.164, 47.122 208.212, 47.567 207.766 C 47.767 207.567, 44.570 205.742, 40.465 203.710 C 36.359 201.679, 33 200.232, 33 200.496 M 79.156 207.711 C 74.873 212.171, 75.278 212.696, 79.842 208.601 C 81.811 206.835, 84.707 202.790, 83.785 203.094 C 83.628 203.146, 81.545 205.224, 79.156 207.711 M 977.204 267.451 C 974.241 273.954, 744.185 503.900, 641.500 602.994 C 631.600 612.548, 628.454 615.833, 634.509 610.295 C 676.599 571.796, 971.054 278.479, 977.523 268.606 C 978.484 267.138, 979.058 265.725, 978.798 265.465 C 978.538 265.204, 977.821 266.098, 977.204 267.451 M 26 305.497 C 26 306.160, 50.121 318.212, 50.563 317.771 C 50.756 317.578, 45.308 314.628, 38.457 311.215 C 31.606 307.802, 26 305.229, 26 305.497 M 137.027 339.714 C 139.977 341.759, 142.873 345.192, 145.208 349.413 C 146.148 351.111, 146.933 352.050, 146.954 351.500 C 147.060 348.720, 138.124 338, 135.701 338 C 135.070 338, 135.668 338.771, 137.027 339.714 M 142.119 369.373 C 140.893 370.678, 138.110 372.548, 135.935 373.529 C 133.759 374.510, 132.166 375.499, 132.393 375.726 C 133.152 376.486, 140.469 372.227, 142.924 369.597 C 144.258 368.169, 145.124 367, 144.849 367 C 144.574 367, 143.345 368.068, 142.119 369.373 M 8.241 371.995 C 5.146 373.882, 0.993 379.349, 1.020 381.500 C 1.027 382.050, 2.047 380.709, 3.287 378.520 C 4.551 376.289, 7.289 373.551, 9.520 372.287 C 11.709 371.047, 13.050 370.027, 12.500 370.020 C 11.950 370.013, 10.033 370.902, 8.241 371.995 M 0.030 393.808 C 0.014 394.528, 1.912 397.022, 4.250 399.350 C 7.117 402.206, 7.485 402.431, 5.380 400.042 C 3.664 398.094, 1.765 395.600, 1.160 394.500 C 0.556 393.400, 0.047 393.089, 0.030 393.808 M 11 405.333 C 12.602 406.890, 24.964 413.879, 23.822 412.581 C 23.449 412.157, 20.074 410.025, 16.322 407.842 C 12.570 405.660, 10.175 404.530, 11 405.333 M 31 416.494 C 31 417.167, 41.122 422.211, 41.571 421.762 C 41.776 421.557, 39.482 420.182, 36.472 418.705 C 33.462 417.229, 31 416.234, 31 416.494 M 140.453 451.828 C 142.627 454.123, 144.565 456, 144.760 456 C 145.666 456, 142.054 451.840, 139.432 449.865 C 137.189 448.176, 137.430 448.638, 140.453 451.828 M 9.378 480.490 C 7.111 481.849, 4.498 484.207, 3.572 485.730 L 1.889 488.500 4.194 485.821 C 5.463 484.348, 8.525 481.991, 11 480.584 C 13.475 479.176, 15.050 478.023, 14.500 478.022 C 13.950 478.020, 11.645 479.131, 9.378 480.490 M 75 501.804 C 75 502.246, 76.688 504.158, 78.750 506.054 L 82.500 509.500 79.145 505.844 C 76.173 502.606, 76.002 502.133, 77.645 501.710 C 79.171 501.317, 79.101 501.211, 77.250 501.116 C 76.013 501.052, 75 501.362, 75 501.804 M 4 508.399 C 4 508.908, 15.270 517.033, 18 518.492 C 20.763 519.968, 17.680 517.472, 10.750 512.623 C 7.037 510.025, 4 508.124, 4 508.399 M 488.784 514.738 C 491.689 514.941, 496.189 514.939, 498.784 514.734 C 501.378 514.528, 499 514.363, 493.500 514.365 C 488 514.368, 485.878 514.536, 488.784 514.738 M 510.320 526 C 510.320 529.575, 510.502 531.038, 510.723 529.250 C 510.945 527.462, 510.945 524.538, 510.723 522.750 C 510.502 520.962, 510.320 522.425, 510.320 526 M 80 532.342 C 77.525 535.063, 73.700 538.114, 71.500 539.123 C 69.300 540.131, 68.085 540.966, 68.800 540.978 C 71.263 541.020, 75.513 538.143, 80.440 533.101 C 83.157 530.321, 85.182 527.900, 84.940 527.720 C 84.698 527.541, 82.475 529.621, 80 532.342 M 536.250 555.716 C 537.763 555.945, 540.237 555.945, 541.750 555.716 C 543.263 555.487, 542.025 555.300, 539 555.300 C 535.975 555.300, 534.737 555.487, 536.250 555.716 M 726.495 608.250 L 689.500 645.500 726.238 609.018 L 762.975 572.535 763.250 610.018 L 763.525 647.500 763.763 609.250 C 763.893 588.212, 763.885 571, 763.745 571 C 763.605 571, 746.842 587.762, 726.495 608.250 M 6.054 591.608 C 4.350 593.042, 2.485 595.180, 1.910 596.358 C 1.060 598.103, 1.238 598.037, 2.873 596.004 C 3.977 594.631, 6.145 592.495, 7.690 591.259 C 9.236 590.022, 10.197 589.008, 9.827 589.005 C 9.456 589.002, 7.759 590.174, 6.054 591.608 M 125.500 595.085 C 122.750 596.147, 121.800 596.762, 123.390 596.453 C 126.534 595.842, 133.124 593.166, 131.500 593.159 C 130.950 593.157, 128.250 594.024, 125.500 595.085 M 578.750 599.723 C 580.538 599.945, 583.462 599.945, 585.250 599.723 C 587.038 599.502, 585.575 599.320, 582 599.320 C 578.425 599.320, 576.962 599.502, 578.750 599.723 M 449.589 604.213 C 451.602 605.980, 458.312 613.299, 464.500 620.479 C 470.689 627.659, 479.296 636.622, 483.626 640.398 C 491.191 646.993, 491.121 646.894, 481.857 637.881 C 476.553 632.722, 469.373 625.125, 465.901 621 C 458.052 611.675, 447.827 601, 446.744 601 C 446.297 601, 447.577 602.446, 449.589 604.213 M 437.189 606.549 C 434.176 612.749, 434.512 613.617, 437.615 607.652 C 439.003 604.986, 439.967 602.633, 439.757 602.424 C 439.548 602.215, 438.392 604.071, 437.189 606.549 M 74.722 610.611 C 74.386 610.947, 75.499 612.391, 77.196 613.819 C 78.893 615.246, 81.117 617.784, 82.137 619.457 C 83.158 621.131, 83.994 621.927, 83.996 621.228 C 83.998 620.528, 82.206 618.009, 80.014 615.631 C 77.821 613.252, 76.321 611.012, 76.680 610.653 C 77.039 610.294, 76.883 610, 76.333 610 C 75.783 610, 75.058 610.275, 74.722 610.611 M 1.004 612.943 C 0.998 615.286, 11.102 624.234, 17.800 627.818 C 26.001 632.206, 25.800 631.179, 17.555 626.568 C 9.740 622.197, 5.330 618.588, 2.863 614.543 C 1.842 612.869, 1.006 612.150, 1.004 612.943 M 593.193 623.128 C 593.039 628.405, 593.357 630.035, 594.750 631.128 C 596.284 632.331, 596.352 632.310, 595.303 630.962 C 594.645 630.116, 593.944 626.516, 593.746 622.962 L 593.385 616.500 593.193 623.128 M 78.156 643.711 C 73.873 648.171, 74.278 648.696, 78.842 644.601 C 80.811 642.835, 83.707 638.790, 82.785 639.094 C 82.628 639.146, 80.545 641.224, 78.156 643.711 M 141.118 669.456 C 142.558 671.130, 144.232 673.400, 144.838 674.500 C 145.444 675.600, 145.953 675.920, 145.970 675.211 C 145.986 674.502, 144.313 672.233, 142.250 670.167 C 140.161 668.076, 139.660 667.760, 141.118 669.456 M 146.112 687.500 C 146.046 688.600, 145.079 690.999, 143.962 692.830 C 142.846 694.662, 142.401 695.870, 142.973 695.517 C 144.719 694.438, 147.148 688.970, 146.676 687.183 C 146.323 685.846, 146.207 685.911, 146.112 687.500 M 75 718.647 C 75 719.252, 81.157 727.287, 83.318 729.500 C 85.243 731.473, 82.645 727.505, 79.330 723.408 C 77.508 721.157, 76.314 719.020, 76.676 718.658 C 77.037 718.296, 76.808 718, 76.167 718 C 75.525 718, 75 718.291, 75 718.647 M 4.720 726.059 C 6.491 727.970, 9.416 730.333, 11.220 731.310 C 14.384 733.024, 14.412 733.024, 12.009 731.294 C 10.639 730.307, 7.714 727.944, 5.509 726.042 L 1.500 722.584 4.720 726.059 M 81.236 748.280 C 79.441 751.024, 78.648 752.707, 79.474 752.022 C 81.221 750.571, 85.400 744.037, 84.864 743.593 C 84.664 743.427, 83.031 745.536, 81.236 748.280 M 763.349 780 C 763.349 784.675, 763.522 786.587, 763.732 784.250 C 763.943 781.913, 763.943 778.087, 763.732 775.750 C 763.522 773.413, 763.349 775.325, 763.349 780 M 90 783.750 C 90 784.427, 291.595 784.425, 582 783.745 C 641.675 783.605, 555.388 783.381, 390.250 783.246 C 225.113 783.110, 90 783.337, 90 783.750 M 750.117 823.818 C 747.462 827.956, 739.551 836.407, 732.453 842.688 C 731.327 843.685, 731.102 844.062, 731.953 843.526 C 737.564 839.995, 748.640 828.323, 752.307 822.077 C 755.171 817.197, 753.526 818.505, 750.117 823.818 M 107.744 828.500 C 109.441 830.700, 112.770 834.300, 115.141 836.500 C 118.224 839.361, 117.771 838.649, 113.550 834 C 105.417 825.042, 104.146 823.838, 107.744 828.500 M 122.724 842.809 C 125.495 845.210, 135.406 851.317, 134 849.758 C 133.725 849.453, 130.350 847.136, 126.500 844.610 C 122.650 842.083, 120.951 841.273, 122.724 842.809 M 172.296 858.744 C 176.583 858.932, 183.333 858.931, 187.296 858.742 C 191.258 858.552, 187.750 858.399, 179.500 858.400 C 171.250 858.401, 168.008 858.556, 172.296 858.744 M 670.206 858.741 C 673.895 858.932, 680.195 858.934, 684.206 858.743 C 688.218 858.553, 685.200 858.396, 677.500 858.395 C 669.800 858.393, 666.518 858.549, 670.206 858.741 M 279.824 859.750 C 302.003 859.900, 338.003 859.900, 359.824 859.750 C 381.646 859.599, 363.500 859.476, 319.500 859.477 C 275.500 859.477, 257.646 859.600, 279.824 859.750 M 502.824 859.750 C 524.453 859.900, 559.553 859.900, 580.824 859.750 C 602.096 859.599, 584.400 859.476, 541.500 859.476 C 498.600 859.476, 481.196 859.599, 502.824 859.750" stroke="none" fill="#c7c7c7" fill-rule="evenodd"/><path d="M 269.500 0.997 L 154.500 1.623 146.186 4.465 C 119.630 13.543, 98.810 36.382, 92.954 62.858 C 91.903 67.611, 91.034 72.063, 91.022 72.750 C 91.004 73.747, 151.554 74, 390.492 74 L 689.984 74 690.242 133.411 L 690.500 192.821 727.412 156.634 L 764.324 120.446 763.709 96.973 C 762.587 54.084, 759.860 45.067, 742.590 27.141 C 734.171 18.402, 725.567 12.039, 716.788 8.058 C 704.250 2.373, 701.694 2.084, 658.934 1.525 C 590.021 0.623, 388.519 0.350, 269.500 0.997 M 75.054 133.998 C 12.071 152.686, 9.935 153.399, 6.773 156.779 C -1.245 165.352, -1.585 175.936, 5.933 183 C 10.676 187.457, 20.586 193.382, 39.500 203.070 C 58.882 212.998, 64.270 214.744, 70.305 213.055 C 85.195 208.886, 89.476 193.490, 79.414 180.298 C 78.025 178.478, 77.142 176.579, 77.452 176.078 C 77.761 175.578, 84.648 173.064, 92.757 170.492 C 139.364 155.707, 141.264 154.887, 144.821 147.996 C 150.858 136.304, 142.603 121.909, 128.500 119.535 C 126.430 119.187, 109.862 123.671, 75.054 133.998 M 701.702 269.750 C 565.297 406.092, 512.081 460.223, 496.482 478.500 C 487.312 489.244, 479.365 501.064, 477.796 506.293 C 475.939 512.482, 477.590 513.342, 492.767 514.092 C 499.770 514.437, 506.227 515.033, 507.115 515.415 C 511.250 517.195, 511.839 523.294, 509.436 539.465 C 508.576 545.254, 508.014 551.455, 508.186 553.245 C 508.651 558.062, 512.998 558.863, 526.793 556.677 C 539.931 554.595, 541.922 554.585, 546.903 556.578 C 549.703 557.698, 551.354 559.220, 552.601 561.828 C 554.265 565.311, 554.269 566.195, 552.672 579 C 550.566 595.887, 550.575 598.325, 552.750 600.193 C 555.749 602.769, 557.342 602.849, 567.565 600.942 C 579.693 598.680, 585.975 598.545, 590.532 600.449 C 594.484 602.100, 594.320 601.341, 594.426 618.474 C 594.500 630.438, 594.502 630.449, 597.178 631.744 C 600.887 633.539, 605.647 631.770, 616.176 624.681 C 628.409 616.446, 644.215 601.157, 801.410 445.500 C 900.291 347.587, 974.931 271.967, 977.392 267.208 C 978.216 265.616, 979.174 262.105, 979.522 259.406 C 980.091 255, 979.822 253.990, 976.884 249.500 C 975.084 246.750, 947.960 218.738, 916.607 187.250 L 859.602 130 850.559 130 L 841.517 130 701.702 269.750 M 122 228.996 C 120.625 229.457, 107.575 233.277, 93 237.486 C 57.367 247.775, 23.690 258.324, 13.730 262.316 C 7.482 264.821, 5.139 266.310, 3.778 268.640 C 1.449 272.629, 0.206 279.648, 1.086 283.849 C 2.547 290.821, 13.687 298.888, 40 312.030 C 64.140 324.087, 71.129 324.856, 79.186 316.339 C 82.713 312.612, 84.142 308.622, 84.142 302.500 C 84.142 296.211, 82.699 292.352, 78.859 288.370 L 75.840 285.240 82.670 282.611 C 86.426 281.166, 96.925 277.735, 106 274.987 C 133.086 266.785, 139.794 264.140, 142.467 260.606 C 150.623 249.821, 146.196 234.836, 133.443 230.065 C 127.513 227.846, 125.885 227.694, 122 228.996 M 121 338.711 C 104.774 341.557, 14.914 368.846, 8.290 372.939 C 3.082 376.156, -1.089 386.526, 0.415 392.519 C 2.138 399.384, 14.148 407.843, 40.120 420.484 C 54.998 427.726, 63.849 431, 68.546 431 C 75.129 431, 83.888 422.171, 84.732 414.686 C 85.358 409.127, 82.843 401.141, 79.467 397.969 C 76.515 395.196, 76.339 393.424, 78.881 392.064 C 79.916 391.510, 92.136 387.642, 106.037 383.469 C 138.101 373.843, 142.397 371.742, 145.587 364.128 C 149.054 355.852, 145.451 345.576, 137.027 339.719 C 134.629 338.051, 127.365 337.594, 121 338.711 M 113 449.105 C 98.265 452.963, 54.894 465.494, 35.500 471.497 C 8.126 479.970, 0.590 485.229, 0.635 495.831 C 0.669 503.863, 3.652 507.994, 14.756 515.387 C 26.562 523.246, 52.007 536.304, 60.822 539.027 C 67.071 540.957, 67.302 540.960, 71.356 539.150 C 73.635 538.133, 77.638 535.002, 80.250 532.193 C 84.390 527.742, 84.999 526.534, 84.994 522.793 C 84.986 516.017, 83.161 511.130, 78.924 506.533 C 74.528 501.764, 74.229 501, 76.759 501 C 78.854 501, 102.527 493.886, 123.592 486.926 C 139.783 481.576, 142.511 479.811, 145.447 472.782 C 147.384 468.145, 147.443 461.745, 145.582 458.200 C 143.622 454.466, 137.075 448.336, 133.685 447.060 C 129.390 445.443, 125.527 445.825, 113 449.105 M 116 557.092 C 79.042 566.805, 20.751 584.483, 13.083 588.303 C 9.339 590.168, 5.397 593.082, 3.620 595.296 C 0.933 598.647, 0.594 599.787, 0.739 605.002 C 1.008 614.711, 4.039 618.611, 17.500 626.571 C 29.236 633.510, 52.522 644.741, 60 647.068 C 68.897 649.836, 73.009 649.044, 78.562 643.490 C 87.355 634.698, 86.955 622.436, 77.608 614.229 C 75.215 612.128, 74.362 610.812, 75.201 610.514 C 75.915 610.260, 84.150 607.770, 93.500 604.980 C 118.128 597.631, 131.856 593.043, 137.163 590.388 C 140.952 588.492, 142.335 587.015, 144.538 582.511 C 146.753 577.985, 147.126 576.191, 146.574 572.734 C 144.975 562.737, 136.741 554.939, 127.912 555.061 C 125.485 555.094, 120.125 556.008, 116 557.092 M 726.250 609.248 L 690 645.510 690 714.755 L 690 784 390.439 784 L 90.877 784 91.567 788.750 C 91.946 791.362, 93.068 796.715, 94.060 800.644 C 99.997 824.157, 120.576 845.502, 145.806 854.313 C 154.211 857.248, 155.315 857.376, 179 858.158 C 209.650 859.170, 627.768 859.429, 667.349 858.460 C 699.751 857.668, 705.701 856.754, 718.500 850.606 C 727.734 846.170, 732.868 842.574, 740.189 835.416 C 750.828 825.012, 758.632 811.449, 761.673 798.077 C 763.598 789.612, 764.434 699.881, 763.289 624.743 L 762.500 572.986 726.250 609.248 M 441.381 601.765 C 438.541 603.630, 421.731 643.072, 406.396 683.849 C 400.536 699.432, 399.896 703.339, 402.934 704.965 C 407.976 707.663, 416.340 705.162, 462.792 687.064 C 494.717 674.625, 502.179 671.310, 504.750 668.418 C 509.432 663.153, 508.591 661.983, 486.311 642.769 C 480.743 637.966, 471.026 628.049, 464.717 620.731 C 448.789 602.252, 445.147 599.292, 441.381 601.765 M 125 663.779 C 114.212 665.245, 30.619 689.605, 17.182 695.197 C 8.219 698.928, 4.807 701.701, 1.970 707.562 C -2.457 716.707, 1.080 724.082, 13.723 732.067 C 23.168 738.032, 47.306 750.455, 55.273 753.452 C 68.344 758.369, 76.881 756.179, 82.585 746.445 C 84.817 742.637, 85.169 741.048, 84.790 736.486 C 84.407 731.859, 83.635 730.159, 79.560 724.973 C 76.930 721.626, 74.941 718.733, 75.140 718.543 C 75.338 718.353, 84.050 715.696, 94.500 712.638 C 139.492 699.471, 144.421 696.934, 146.496 685.875 C 147.759 679.139, 143.018 669.220, 136.992 665.996 C 134.397 664.607, 127.834 663.394, 125 663.779" stroke="none" fill="#050505" fill-rule="evenodd"/></svg>